<svg width="34" height="7" viewBox="0 0 34 7" fill="none" xmlns="http://www.w3.org/2000/svg">
<path d="M10.43 6.01L9.63 7H6.07L0.4 -4.76837e-07H3.96L7.85 4.8L8.65 3.81L5.56 -4.76837e-07H9.12L10.43 1.62L11.74 -4.76837e-07H15.3L12.21 3.81L13.01 4.8L16.9 -4.76837e-07H20.46L14.79 7H11.23L10.43 6.01ZM22.3359 4C20.9759 4 20.1559 3.2 20.1559 2.05C20.1559 0.9 20.9759 -4.76837e-07 22.3359 -4.76837e-07H33.1559V2.4H23.6459C23.4059 2.4 23.3159 2.58 23.3159 2.7C23.3159 2.82 23.4059 3 23.6459 3H31.3759C32.7359 3 33.5559 3.8 33.5559 4.95C33.5559 6.1 32.7359 7 31.3759 7H20.5559V4.6H30.0659C30.3059 4.6 30.3959 4.42 30.3959 4.3C30.3959 4.18 30.3059 4 30.0659 4H22.3359Z" fill="white"/>
</svg>
